<?xml version="1.0" standalone="no"?>
<!DOCTYPE svg PUBLIC "-//W3C//DTD SVG 20010904//EN"
 "http://www.w3.org/TR/2001/REC-SVG-20010904/DTD/svg10.dtd">
<svg version="1.0" xmlns="http://www.w3.org/2000/svg"
 width="599.000000pt" height="599.000000pt" viewBox="0 0 599.000000 599.000000"
 preserveAspectRatio="xMidYMid meet">
<metadata>
Created by potrace 1.11, written by Peter Selinger 2001-2013
</metadata>
<g transform="translate(0.000000,599.000000) scale(0.100000,-0.100000)"
fill="#000000" stroke="none">
<path d="M2849 5986 c-2 -2 -42 -7 -89 -11 -118 -9 -301 -41 -460 -80 -353
-87 -746 -277 -1055 -509 -244 -184 -487 -438 -663 -694 -41 -59 -77 -114 -80
-122 -3 -8 -8 -17 -12 -20 -21 -16 -163 -298 -211 -416 -76 -190 -156 -462
-174 -594 -3 -25 -8 -52 -11 -61 -2 -9 -7 -34 -10 -55 -43 -307 -35 -708 21
-974 4 -22 12 -61 21 -112 16 -91 132 -456 154 -483 4 -5 11 -21 15 -35 4 -14
26 -63 48 -110 370 -772 1042 -1346 1862 -1588 87 -26 179 -49 225 -57 19 -3
67 -12 105 -20 39 -7 97 -16 130 -20 33 -4 92 -10 130 -15 39 -4 174 -6 300
-4 225 3 279 6 360 18 22 3 60 8 85 11 25 3 68 10 95 15 28 5 66 12 85 15 101
17 414 109 507 150 18 8 50 22 71 31 561 242 1025 681 1301 1233 109 217 217
526 254 731 29 154 37 203 42 250 4 30 8 66 10 80 18 115 24 470 12 641 -9
120 -14 162 -33 284 -3 22 -7 47 -9 55 -2 13 -166 15 -1411 15 l-1409 0 -3
-578 -2 -577 809 0 808 0 -14 -62 c-58 -251 -187 -483 -372 -668 -119 -118
-237 -203 -388 -279 -342 -172 -807 -230 -1193 -149 -30 6 -59 12 -65 14 -47
9 -177 54 -255 87 -122 52 -184 86 -295 160 -305 204 -532 485 -679 840 -33
80 -81 230 -91 286 -2 14 -9 49 -14 76 -32 169 -34 407 -5 595 77 500 394 982
826 1253 175 110 396 201 561 233 12 2 33 6 47 9 177 36 418 38 621 6 277 -45
602 -200 798 -381 24 -22 46 -40 49 -40 6 0 852 845 852 851 0 11 -184 163
-290 238 -302 218 -644 374 -1001 459 -131 31 -221 48 -304 58 -27 3 -61 8
-75 11 -28 5 -526 14 -531 9z"/>
</g>
</svg>
